<mxfile host="app.diagrams.net" agent="Mozilla/5.0 (Windows NT 10.0; Win64; x64; rv:139.0) Gecko/20100101 Firefox/139.0" version="27.1.4">
  <diagram name="Page-1" id="HXtm0ScMpEfAkk-aMIyB">
    <mxGraphModel grid="1" page="1" gridSize="10" guides="1" tooltips="1" connect="1" arrows="1" fold="1" pageScale="1" pageWidth="850" pageHeight="1100" math="0" shadow="0">
      <root>
        <mxCell id="0" />
        <mxCell id="1" parent="0" />
        <mxCell id="118PALkIRRvLdiDWojPn-3" value="" style="endArrow=none;dashed=1;html=1;dashPattern=1 3;strokeWidth=2;rounded=0;" edge="1" parent="1">
          <mxGeometry width="50" height="50" relative="1" as="geometry">
            <mxPoint x="1225" y="520" as="sourcePoint" />
            <mxPoint x="1224.5" y="97.5" as="targetPoint" />
          </mxGeometry>
        </mxCell>
        <mxCell id="93W3_eNrnLVxKb-_njBg-21" value="" style="endArrow=none;dashed=1;html=1;dashPattern=1 3;strokeWidth=2;rounded=0;" edge="1" parent="1">
          <mxGeometry width="50" height="50" relative="1" as="geometry">
            <mxPoint x="1095" y="520" as="sourcePoint" />
            <mxPoint x="1094.52" y="97.5" as="targetPoint" />
          </mxGeometry>
        </mxCell>
        <mxCell id="93W3_eNrnLVxKb-_njBg-18" value="" style="endArrow=none;dashed=1;html=1;dashPattern=1 3;strokeWidth=2;rounded=0;" edge="1" parent="1">
          <mxGeometry width="50" height="50" relative="1" as="geometry">
            <mxPoint x="955" y="521.1111450195312" as="sourcePoint" />
            <mxPoint x="954.52" y="97.5" as="targetPoint" />
          </mxGeometry>
        </mxCell>
        <mxCell id="93W3_eNrnLVxKb-_njBg-13" value="" style="endArrow=none;dashed=1;html=1;dashPattern=1 3;strokeWidth=2;rounded=0;" edge="1" parent="1">
          <mxGeometry width="50" height="50" relative="1" as="geometry">
            <mxPoint x="815" y="520" as="sourcePoint" />
            <mxPoint x="814.52" y="97.5" as="targetPoint" />
          </mxGeometry>
        </mxCell>
        <mxCell id="vrCjoULWSTv3zUjgovkU-29" value="" style="endArrow=none;dashed=1;html=1;dashPattern=1 3;strokeWidth=2;rounded=0;" edge="1" parent="1">
          <mxGeometry width="50" height="50" relative="1" as="geometry">
            <mxPoint x="680" y="520" as="sourcePoint" />
            <mxPoint x="679.52" y="100" as="targetPoint" />
          </mxGeometry>
        </mxCell>
        <mxCell id="vrCjoULWSTv3zUjgovkU-25" value="" style="endArrow=none;dashed=1;html=1;dashPattern=1 3;strokeWidth=2;rounded=0;" edge="1" parent="1" source="XkELYPimh5mJrG420ySH-1">
          <mxGeometry width="50" height="50" relative="1" as="geometry">
            <mxPoint x="530" y="500" as="sourcePoint" />
            <mxPoint x="529.4399999999999" y="97.5" as="targetPoint" />
          </mxGeometry>
        </mxCell>
        <mxCell id="vrCjoULWSTv3zUjgovkU-17" value="" style="endArrow=none;dashed=1;html=1;dashPattern=1 3;strokeWidth=2;rounded=0;" edge="1" parent="1" source="XkELYPimh5mJrG420ySH-3">
          <mxGeometry width="50" height="50" relative="1" as="geometry">
            <mxPoint x="374" y="520" as="sourcePoint" />
            <mxPoint x="374.43999999999994" y="80" as="targetPoint" />
          </mxGeometry>
        </mxCell>
        <mxCell id="vrCjoULWSTv3zUjgovkU-1" value="" style="shape=umlLifeline;perimeter=lifelinePerimeter;whiteSpace=wrap;html=1;container=1;dropTarget=0;collapsible=0;recursiveResize=0;outlineConnect=0;portConstraint=eastwest;newEdgeStyle={&quot;curved&quot;:0,&quot;rounded&quot;:0};participant=umlActor;" vertex="1" parent="1">
          <mxGeometry x="45" y="60" width="20" height="380" as="geometry" />
        </mxCell>
        <mxCell id="vrCjoULWSTv3zUjgovkU-2" value="&lt;font style=&quot;font-size: 10px;&quot;&gt;Técnico de laboratorio,&lt;/font&gt;&lt;div&gt;&lt;font style=&quot;font-size: 10px;&quot;&gt;&amp;nbsp;Administrador&lt;/font&gt;&lt;/div&gt;" style="text;html=1;align=center;verticalAlign=middle;resizable=0;points=[];autosize=1;strokeColor=none;fillColor=none;" vertex="1" parent="1">
          <mxGeometry x="-10" y="20" width="130" height="40" as="geometry" />
        </mxCell>
        <mxCell id="vrCjoULWSTv3zUjgovkU-3" value="" style="html=1;points=[[0,0,0,0,5],[0,1,0,0,-5],[1,0,0,0,5],[1,1,0,0,-5]];perimeter=orthogonalPerimeter;outlineConnect=0;targetShapes=umlLifeline;portConstraint=eastwest;newEdgeStyle={&quot;curved&quot;:0,&quot;rounded&quot;:0};" vertex="1" parent="1">
          <mxGeometry x="50" y="140" width="10" height="380" as="geometry" />
        </mxCell>
        <mxCell id="vrCjoULWSTv3zUjgovkU-4" value="&lt;div&gt;&lt;font style=&quot;font-size: 10px;&quot;&gt;V_Generación_&lt;/font&gt;&lt;/div&gt;&lt;div&gt;&lt;font style=&quot;font-size: 10px;&quot;&gt;Informe&lt;/font&gt;&lt;/div&gt;" style="html=1;whiteSpace=wrap;fillColor=#D5E8D4;" vertex="1" parent="1">
          <mxGeometry x="195" y="67.5" width="80" height="30" as="geometry" />
        </mxCell>
        <mxCell id="vrCjoULWSTv3zUjgovkU-5" value="&lt;font style=&quot;font-size: 10px;&quot;&gt;C_Admin_Informe&lt;/font&gt;" style="html=1;whiteSpace=wrap;fillColor=#DAE8FC;" vertex="1" parent="1">
          <mxGeometry x="480" y="70" width="100" height="27.5" as="geometry" />
        </mxCell>
        <mxCell id="vrCjoULWSTv3zUjgovkU-6" value="&lt;font style=&quot;font-size: 10px;&quot;&gt;C_sqlx&lt;/font&gt;" style="html=1;whiteSpace=wrap;fillColor=#E1D5E7;" vertex="1" parent="1">
          <mxGeometry x="645" y="70" width="70" height="27.5" as="geometry" />
        </mxCell>
        <mxCell id="vrCjoULWSTv3zUjgovkU-7" value="&lt;font style=&quot;font-size: 10px;&quot;&gt;C_MySQL&lt;/font&gt;" style="html=1;whiteSpace=wrap;fillColor=#DAE8FC;" vertex="1" parent="1">
          <mxGeometry x="780" y="70" width="70" height="27.5" as="geometry" />
        </mxCell>
        <mxCell id="vrCjoULWSTv3zUjgovkU-8" value="&lt;font style=&quot;font-size: 10px;&quot;&gt;Cotizacion&lt;/font&gt;" style="html=1;whiteSpace=wrap;fillColor=#FFE6CC;" vertex="1" parent="1">
          <mxGeometry x="1190" y="70" width="70" height="27.5" as="geometry" />
        </mxCell>
        <mxCell id="vrCjoULWSTv3zUjgovkU-9" value="&lt;font style=&quot;font-size: 8px;&quot;&gt;1.Accede a la sección&amp;nbsp;&lt;/font&gt;&lt;div&gt;&lt;span style=&quot;font-size: 8px; background-color: light-dark(#ffffff, var(--ge-dark-color, #121212)); color: light-dark(rgb(0, 0, 0), rgb(255, 255, 255));&quot;&gt;&amp;nbsp;&quot;Generar Informe Técnico&quot;&lt;/span&gt;&lt;/div&gt;" style="html=1;verticalAlign=bottom;endArrow=block;curved=0;rounded=0;entryX=0;entryY=0.16;entryDx=0;entryDy=0;entryPerimeter=0;align=left;" edge="1" parent="1">
          <mxGeometry x="-0.8824" width="80" relative="1" as="geometry">
            <mxPoint x="60" y="179.99999999999994" as="sourcePoint" />
            <mxPoint x="230" y="179.99999999999994" as="targetPoint" />
            <mxPoint as="offset" />
          </mxGeometry>
        </mxCell>
        <mxCell id="vrCjoULWSTv3zUjgovkU-10" value="" style="html=1;points=[[0,0,0,0,5],[0,1,0,0,-5],[1,0,0,0,5],[1,1,0,0,-5]];perimeter=orthogonalPerimeter;outlineConnect=0;targetShapes=umlLifeline;portConstraint=eastwest;newEdgeStyle={&quot;curved&quot;:0,&quot;rounded&quot;:0};" vertex="1" parent="1">
          <mxGeometry x="230" y="140" width="10" height="380" as="geometry" />
        </mxCell>
        <mxCell id="vrCjoULWSTv3zUjgovkU-12" value="&lt;font style=&quot;font-size: 8px;&quot;&gt;15.Retorna datos del equipo&amp;nbsp;&lt;/font&gt;" style="html=1;verticalAlign=bottom;endArrow=open;dashed=1;endSize=8;curved=0;rounded=0;" edge="1" parent="1">
          <mxGeometry x="-0.0769" relative="1" as="geometry">
            <mxPoint x="369.9999999999999" y="350" as="sourcePoint" />
            <mxPoint x="240" y="350" as="targetPoint" />
            <Array as="points">
              <mxPoint x="370" y="350" />
            </Array>
            <mxPoint as="offset" />
          </mxGeometry>
        </mxCell>
        <mxCell id="vrCjoULWSTv3zUjgovkU-13" value="&lt;div style=&quot;text-align: left;&quot;&gt;&lt;span style=&quot;font-size: 8px; background-color: light-dark(#ffffff, var(--ge-dark-color, #121212)); color: light-dark(rgb(0, 0, 0), rgb(255, 255, 255));&quot;&gt;17..Completa diagnóstico, trabajos,&amp;nbsp;&lt;/span&gt;&lt;/div&gt;&lt;div&gt;&lt;div style=&quot;text-align: left;&quot;&gt;&lt;font style=&quot;background-color: light-dark(#ffffff, var(--ge-dark-color, #121212)); color: light-dark(rgb(0, 0, 0), rgb(255, 255, 255)); font-size: 8px;&quot;&gt;repuestos,&amp;nbsp;&lt;/font&gt;&lt;span style=&quot;color: light-dark(rgb(0, 0, 0), rgb(255, 255, 255)); font-size: 8px; background-color: light-dark(#ffffff, var(--ge-dark-color, #121212));&quot;&gt;observaciones,&amp;nbsp;&lt;/span&gt;&lt;/div&gt;&lt;div&gt;&lt;div style=&quot;text-align: left;&quot;&gt;&lt;font style=&quot;font-size: 8px;&quot;&gt;estado final&lt;/font&gt;&lt;font style=&quot;font-size: 7px;&quot;&gt; &lt;br&gt;&lt;/font&gt;&lt;/div&gt;&lt;/div&gt;&lt;/div&gt;" style="html=1;verticalAlign=bottom;endArrow=block;curved=0;rounded=0;" edge="1" parent="1">
          <mxGeometry x="-0.0588" width="80" relative="1" as="geometry">
            <mxPoint x="60" y="420" as="sourcePoint" />
            <mxPoint x="229.9999999999999" y="420" as="targetPoint" />
            <mxPoint as="offset" />
          </mxGeometry>
        </mxCell>
        <mxCell id="vrCjoULWSTv3zUjgovkU-14" value="" style="endArrow=block;endFill=1;html=1;edgeStyle=orthogonalEdgeStyle;align=left;verticalAlign=top;rounded=0;" edge="1" parent="1">
          <mxGeometry x="-1" relative="1" as="geometry">
            <mxPoint x="240" y="430" as="sourcePoint" />
            <mxPoint x="370" y="430" as="targetPoint" />
          </mxGeometry>
        </mxCell>
        <mxCell id="vrCjoULWSTv3zUjgovkU-15" value="&lt;font style=&quot;font-size: 8px;&quot;&gt;18.Valida datos y envía al&amp;nbsp;&lt;/font&gt;&lt;div&gt;&lt;font style=&quot;font-size: 8px;&quot;&gt;controlador&lt;/font&gt;&lt;/div&gt;" style="edgeLabel;resizable=0;html=1;align=left;verticalAlign=bottom;" connectable="0" vertex="1" parent="vrCjoULWSTv3zUjgovkU-14">
          <mxGeometry x="-1" relative="1" as="geometry" />
        </mxCell>
        <mxCell id="vrCjoULWSTv3zUjgovkU-16" value="" style="html=1;points=[[0,0,0,0,5],[0,1,0,0,-5],[1,0,0,0,5],[1,1,0,0,-5]];perimeter=orthogonalPerimeter;outlineConnect=0;targetShapes=umlLifeline;portConstraint=eastwest;newEdgeStyle={&quot;curved&quot;:0,&quot;rounded&quot;:0};" vertex="1" parent="1">
          <mxGeometry x="370" y="140" width="10" height="90" as="geometry" />
        </mxCell>
        <mxCell id="vrCjoULWSTv3zUjgovkU-18" value="&lt;font style=&quot;font-size: 8px;&quot;&gt;21.Crear los&amp;nbsp;&lt;/font&gt;&lt;span style=&quot;font-size: 8px; background-color: light-dark(#ffffff, var(--ge-dark-color, #121212)); color: light-dark(rgb(0, 0, 0), rgb(255, 255, 255));&quot;&gt;componentes&lt;/span&gt;&lt;div&gt;&lt;div&gt;&lt;font style=&quot;font-size: 8px;&quot;&gt;&amp;nbsp;para&amp;nbsp;&amp;nbsp;&lt;span style=&quot;color: light-dark(rgb(0, 0, 0), rgb(255, 255, 255));&quot;&gt;que sean&amp;nbsp;&lt;/span&gt;&lt;/font&gt;&lt;span style=&quot;font-size: 8px; color: light-dark(rgb(0, 0, 0), rgb(255, 255, 255)); background-color: light-dark(#ffffff, var(--ge-dark-color, #121212));&quot;&gt;visualizados&lt;/span&gt;&lt;/div&gt;&lt;/div&gt;" style="html=1;verticalAlign=bottom;endArrow=open;dashed=1;endSize=8;curved=0;rounded=0;align=left;" edge="1" parent="1">
          <mxGeometry x="0.6923" relative="1" as="geometry">
            <mxPoint x="370" y="479" as="sourcePoint" />
            <mxPoint x="240" y="479.13" as="targetPoint" />
            <mxPoint as="offset" />
          </mxGeometry>
        </mxCell>
        <mxCell id="bh0T0YlCbll4Az-UqM-n-2" value="" style="endArrow=block;endFill=1;html=1;edgeStyle=orthogonalEdgeStyle;align=left;verticalAlign=top;rounded=0;" edge="1" parent="1">
          <mxGeometry x="-1" relative="1" as="geometry">
            <mxPoint x="240" y="190" as="sourcePoint" />
            <mxPoint x="370" y="190" as="targetPoint" />
          </mxGeometry>
        </mxCell>
        <mxCell id="bh0T0YlCbll4Az-UqM-n-3" value="&lt;font style=&quot;font-size: 8px;&quot;&gt;2.Solicita información del equipo&lt;/font&gt;" style="edgeLabel;resizable=0;html=1;align=left;verticalAlign=bottom;" connectable="0" vertex="1" parent="bh0T0YlCbll4Az-UqM-n-2">
          <mxGeometry x="-1" relative="1" as="geometry" />
        </mxCell>
        <mxCell id="bh0T0YlCbll4Az-UqM-n-9" value="" style="endArrow=none;dashed=1;html=1;dashPattern=1 3;strokeWidth=2;rounded=0;" edge="1" parent="1">
          <mxGeometry width="50" height="50" relative="1" as="geometry">
            <mxPoint x="234.55" y="97.5" as="sourcePoint" />
            <mxPoint x="235" y="140.00363636363636" as="targetPoint" />
          </mxGeometry>
        </mxCell>
        <mxCell id="wPNovAGsa_lZlRpQv8at-6" value="&lt;font style=&quot;font-size: 8px;&quot;&gt;22. Mostrar preview del informe&lt;/font&gt;" style="html=1;verticalAlign=bottom;endArrow=open;dashed=1;endSize=8;curved=0;rounded=0;" edge="1" parent="1" target="vrCjoULWSTv3zUjgovkU-3">
          <mxGeometry relative="1" as="geometry">
            <mxPoint x="230" y="490" as="sourcePoint" />
            <mxPoint x="90" y="491" as="targetPoint" />
          </mxGeometry>
        </mxCell>
        <mxCell id="wPNovAGsa_lZlRpQv8at-7" value="&lt;font style=&quot;font-size: 10px;&quot;&gt;C_Webview2&lt;/font&gt;" style="html=1;whiteSpace=wrap;fillColor=#E1D5E7;" vertex="1" parent="1">
          <mxGeometry x="340" y="70" width="70" height="27.5" as="geometry" />
        </mxCell>
        <mxCell id="wPNovAGsa_lZlRpQv8at-8" value="&lt;font style=&quot;font-size: 8px;&quot;&gt;16.Mostrar formulario con campos&amp;nbsp;&lt;/font&gt;&lt;div&gt;&lt;font style=&quot;font-size: 8px;&quot;&gt;pre completados&lt;/font&gt;&lt;/div&gt;" style="html=1;verticalAlign=bottom;endArrow=open;dashed=1;endSize=8;curved=0;rounded=0;align=left;" edge="1" parent="1" target="vrCjoULWSTv3zUjgovkU-3">
          <mxGeometry x="0.7647" relative="1" as="geometry">
            <mxPoint x="229.9999999999999" y="360" as="sourcePoint" />
            <mxPoint x="100" y="360" as="targetPoint" />
            <Array as="points">
              <mxPoint x="230" y="360" />
            </Array>
            <mxPoint as="offset" />
          </mxGeometry>
        </mxCell>
        <mxCell id="93W3_eNrnLVxKb-_njBg-1" value="&lt;font style=&quot;font-size: 10px;&quot;&gt;Orden de Trabajo&lt;/font&gt;" style="html=1;whiteSpace=wrap;fillColor=#FFE6CC;" vertex="1" parent="1">
          <mxGeometry x="920" y="70" width="70" height="27.5" as="geometry" />
        </mxCell>
        <mxCell id="93W3_eNrnLVxKb-_njBg-2" value="&lt;font style=&quot;font-size: 10px;&quot;&gt;Equipo&lt;/font&gt;" style="html=1;whiteSpace=wrap;fillColor=#FFE6CC;" vertex="1" parent="1">
          <mxGeometry x="1060" y="70" width="70" height="27.5" as="geometry" />
        </mxCell>
        <mxCell id="93W3_eNrnLVxKb-_njBg-4" value="" style="endArrow=block;endFill=1;html=1;edgeStyle=orthogonalEdgeStyle;align=left;verticalAlign=top;rounded=0;" edge="1" parent="1">
          <mxGeometry x="-1" relative="1" as="geometry">
            <mxPoint x="380" y="200" as="sourcePoint" />
            <mxPoint x="520" y="200" as="targetPoint" />
          </mxGeometry>
        </mxCell>
        <mxCell id="93W3_eNrnLVxKb-_njBg-5" value="&lt;span style=&quot;font-size: 8px;&quot;&gt;3&lt;/span&gt;&lt;font style=&quot;font-size: 8px;&quot;&gt;.Percibe un cambio en la pestaña&amp;nbsp;&lt;/font&gt;&lt;div&gt;&lt;font style=&quot;font-size: 8px;&quot;&gt;y notifica el evento&amp;nbsp;&lt;/font&gt;&lt;/div&gt;" style="edgeLabel;resizable=0;html=1;align=left;verticalAlign=bottom;" connectable="0" vertex="1" parent="93W3_eNrnLVxKb-_njBg-4">
          <mxGeometry x="-1" relative="1" as="geometry" />
        </mxCell>
        <mxCell id="93W3_eNrnLVxKb-_njBg-7" value="" style="endArrow=none;dashed=1;html=1;dashPattern=1 3;strokeWidth=2;rounded=0;" edge="1" parent="1" target="93W3_eNrnLVxKb-_njBg-6">
          <mxGeometry width="50" height="50" relative="1" as="geometry">
            <mxPoint x="529.87" y="242.5" as="sourcePoint" />
            <mxPoint x="529.4399999999999" y="97.5" as="targetPoint" />
          </mxGeometry>
        </mxCell>
        <mxCell id="93W3_eNrnLVxKb-_njBg-6" value="" style="html=1;points=[[0,0,0,0,5],[0,1,0,0,-5],[1,0,0,0,5],[1,1,0,0,-5]];perimeter=orthogonalPerimeter;outlineConnect=0;targetShapes=umlLifeline;portConstraint=eastwest;newEdgeStyle={&quot;curved&quot;:0,&quot;rounded&quot;:0};" vertex="1" parent="1">
          <mxGeometry x="525" y="160" width="10" height="200" as="geometry" />
        </mxCell>
        <mxCell id="93W3_eNrnLVxKb-_njBg-9" value="" style="endArrow=none;dashed=1;html=1;dashPattern=1 3;strokeWidth=2;rounded=0;" edge="1" parent="1" target="93W3_eNrnLVxKb-_njBg-8">
          <mxGeometry width="50" height="50" relative="1" as="geometry">
            <mxPoint x="679.95" y="245" as="sourcePoint" />
            <mxPoint x="679.52" y="100" as="targetPoint" />
          </mxGeometry>
        </mxCell>
        <mxCell id="93W3_eNrnLVxKb-_njBg-8" value="" style="html=1;points=[[0,0,0,0,5],[0,1,0,0,-5],[1,0,0,0,5],[1,1,0,0,-5]];perimeter=orthogonalPerimeter;outlineConnect=0;targetShapes=umlLifeline;portConstraint=eastwest;newEdgeStyle={&quot;curved&quot;:0,&quot;rounded&quot;:0};" vertex="1" parent="1">
          <mxGeometry x="675" y="140" width="10" height="220" as="geometry" />
        </mxCell>
        <mxCell id="93W3_eNrnLVxKb-_njBg-10" value="" style="endArrow=block;endFill=1;html=1;edgeStyle=orthogonalEdgeStyle;align=left;verticalAlign=top;rounded=0;" edge="1" parent="1">
          <mxGeometry x="-1" relative="1" as="geometry">
            <mxPoint x="535" y="210" as="sourcePoint" />
            <mxPoint x="675" y="210" as="targetPoint" />
          </mxGeometry>
        </mxCell>
        <mxCell id="93W3_eNrnLVxKb-_njBg-11" value="&lt;span style=&quot;font-size: 8px;&quot;&gt;4.Prepara la solicitud y entrega la&lt;/span&gt;&lt;div&gt;&lt;span style=&quot;font-size: 8px;&quot;&gt;&amp;nbsp;información a sqlx&amp;nbsp;&lt;/span&gt;&lt;/div&gt;" style="edgeLabel;resizable=0;html=1;align=left;verticalAlign=bottom;" connectable="0" vertex="1" parent="93W3_eNrnLVxKb-_njBg-10">
          <mxGeometry x="-1" relative="1" as="geometry" />
        </mxCell>
        <mxCell id="93W3_eNrnLVxKb-_njBg-12" value="" style="html=1;points=[[0,0,0,0,5],[0,1,0,0,-5],[1,0,0,0,5],[1,1,0,0,-5]];perimeter=orthogonalPerimeter;outlineConnect=0;targetShapes=umlLifeline;portConstraint=eastwest;newEdgeStyle={&quot;curved&quot;:0,&quot;rounded&quot;:0};" vertex="1" parent="1">
          <mxGeometry x="810" y="140" width="10" height="220" as="geometry" />
        </mxCell>
        <mxCell id="93W3_eNrnLVxKb-_njBg-14" value="" style="endArrow=block;endFill=1;html=1;edgeStyle=orthogonalEdgeStyle;align=left;verticalAlign=top;rounded=0;" edge="1" parent="1">
          <mxGeometry x="-1" relative="1" as="geometry">
            <mxPoint x="685" y="222.02" as="sourcePoint" />
            <mxPoint x="800" y="222" as="targetPoint" />
          </mxGeometry>
        </mxCell>
        <mxCell id="93W3_eNrnLVxKb-_njBg-15" value="&lt;span style=&quot;font-size: 8px;&quot;&gt;5.Solicita los datos en la base&lt;/span&gt;" style="edgeLabel;resizable=0;html=1;align=left;verticalAlign=bottom;" connectable="0" vertex="1" parent="93W3_eNrnLVxKb-_njBg-14">
          <mxGeometry x="-1" relative="1" as="geometry" />
        </mxCell>
        <mxCell id="93W3_eNrnLVxKb-_njBg-16" value="&lt;font style=&quot;font-size: 8px;&quot;&gt;6. Realiza la consulta&lt;/font&gt;&lt;div&gt;&lt;font style=&quot;font-size: 8px;&quot;&gt;en la base de datos&lt;/font&gt;&lt;/div&gt;" style="html=1;verticalAlign=bottom;endArrow=block;curved=0;rounded=0;align=left;" edge="1" parent="1" target="93W3_eNrnLVxKb-_njBg-17">
          <mxGeometry x="-0.6923" width="80" relative="1" as="geometry">
            <mxPoint x="820" y="230" as="sourcePoint" />
            <mxPoint x="940" y="230" as="targetPoint" />
            <mxPoint as="offset" />
          </mxGeometry>
        </mxCell>
        <mxCell id="93W3_eNrnLVxKb-_njBg-17" value="" style="html=1;points=[[0,0,0,0,5],[0,1,0,0,-5],[1,0,0,0,5],[1,1,0,0,-5]];perimeter=orthogonalPerimeter;outlineConnect=0;targetShapes=umlLifeline;portConstraint=eastwest;newEdgeStyle={&quot;curved&quot;:0,&quot;rounded&quot;:0};" vertex="1" parent="1">
          <mxGeometry x="950" y="140" width="10" height="220" as="geometry" />
        </mxCell>
        <mxCell id="93W3_eNrnLVxKb-_njBg-19" value="&lt;div&gt;&lt;font style=&quot;font-size: 8px;&quot;&gt;7. Realiza un join en base a &lt;br&gt;&lt;/font&gt;&lt;/div&gt;&lt;div&gt;&lt;font style=&quot;font-size: 8px;&quot;&gt;la id&lt;/font&gt;&lt;/div&gt;" style="html=1;verticalAlign=bottom;endArrow=block;curved=0;rounded=0;align=left;" edge="1" parent="1" target="93W3_eNrnLVxKb-_njBg-20">
          <mxGeometry x="-0.7143" width="80" relative="1" as="geometry">
            <mxPoint x="950" y="249.52" as="sourcePoint" />
            <mxPoint x="1070" y="250" as="targetPoint" />
            <mxPoint as="offset" />
          </mxGeometry>
        </mxCell>
        <mxCell id="93W3_eNrnLVxKb-_njBg-20" value="" style="html=1;points=[[0,0,0,0,5],[0,1,0,0,-5],[1,0,0,0,5],[1,1,0,0,-5]];perimeter=orthogonalPerimeter;outlineConnect=0;targetShapes=umlLifeline;portConstraint=eastwest;newEdgeStyle={&quot;curved&quot;:0,&quot;rounded&quot;:0};" vertex="1" parent="1">
          <mxGeometry x="1090" y="140" width="10" height="220" as="geometry" />
        </mxCell>
        <mxCell id="118PALkIRRvLdiDWojPn-1" value="&lt;div&gt;&lt;font style=&quot;font-size: 8px;&quot;&gt;8. Realiza un join en base a &lt;br&gt;&lt;/font&gt;&lt;/div&gt;&lt;div&gt;&lt;font style=&quot;font-size: 8px;&quot;&gt;la id&lt;/font&gt;&lt;/div&gt;" style="html=1;verticalAlign=bottom;endArrow=block;curved=0;rounded=0;align=left;" edge="1" parent="1">
          <mxGeometry x="-0.6923" width="80" relative="1" as="geometry">
            <mxPoint x="1090" y="260" as="sourcePoint" />
            <mxPoint x="1220" y="260" as="targetPoint" />
            <mxPoint as="offset" />
          </mxGeometry>
        </mxCell>
        <mxCell id="118PALkIRRvLdiDWojPn-2" value="" style="html=1;points=[[0,0,0,0,5],[0,1,0,0,-5],[1,0,0,0,5],[1,1,0,0,-5]];perimeter=orthogonalPerimeter;outlineConnect=0;targetShapes=umlLifeline;portConstraint=eastwest;newEdgeStyle={&quot;curved&quot;:0,&quot;rounded&quot;:0};" vertex="1" parent="1">
          <mxGeometry x="1220" y="140" width="10" height="220" as="geometry" />
        </mxCell>
        <mxCell id="118PALkIRRvLdiDWojPn-4" value="&lt;font style=&quot;font-size: 8px;&quot;&gt;9.retorna datos de cotizacion&lt;/font&gt;" style="html=1;verticalAlign=bottom;endArrow=open;dashed=1;endSize=8;curved=0;rounded=0;align=left;" edge="1" parent="1">
          <mxGeometry x="0.8333" relative="1" as="geometry">
            <mxPoint x="1220" y="289.63" as="sourcePoint" />
            <mxPoint x="1100" y="290" as="targetPoint" />
            <mxPoint as="offset" />
          </mxGeometry>
        </mxCell>
        <mxCell id="118PALkIRRvLdiDWojPn-5" value="&lt;font style=&quot;font-size: 8px;&quot;&gt;10.retorna datos de equipos&lt;/font&gt;" style="html=1;verticalAlign=bottom;endArrow=open;dashed=1;endSize=8;curved=0;rounded=0;align=left;" edge="1" parent="1" target="93W3_eNrnLVxKb-_njBg-17">
          <mxGeometry x="0.8333" relative="1" as="geometry">
            <mxPoint x="1090" y="300" as="sourcePoint" />
            <mxPoint x="970" y="300.37" as="targetPoint" />
            <mxPoint as="offset" />
          </mxGeometry>
        </mxCell>
        <mxCell id="118PALkIRRvLdiDWojPn-6" value="&lt;font style=&quot;font-size: 8px;&quot;&gt;11. La tabla devuelve los datos&lt;/font&gt;&lt;div&gt;&lt;font style=&quot;font-size: 8px;&quot;&gt;de la consulta&lt;/font&gt;&lt;/div&gt;" style="html=1;verticalAlign=bottom;endArrow=open;dashed=1;endSize=8;curved=0;rounded=0;align=left;" edge="1" parent="1">
          <mxGeometry x="0.8462" relative="1" as="geometry">
            <mxPoint x="950" y="310" as="sourcePoint" />
            <mxPoint x="820" y="310" as="targetPoint" />
            <mxPoint as="offset" />
          </mxGeometry>
        </mxCell>
        <mxCell id="118PALkIRRvLdiDWojPn-7" value="&lt;font style=&quot;font-size: 8px;&quot;&gt;12. Envía los datos&lt;/font&gt;&lt;div&gt;&lt;font style=&quot;font-size: 8px;&quot;&gt;a sqlx&lt;/font&gt;&lt;/div&gt;" style="html=1;verticalAlign=bottom;endArrow=open;dashed=1;endSize=8;curved=0;rounded=0;align=left;" edge="1" parent="1">
          <mxGeometry x="0.5" relative="1" as="geometry">
            <mxPoint x="810" y="320" as="sourcePoint" />
            <mxPoint x="690" y="320" as="targetPoint" />
            <mxPoint as="offset" />
          </mxGeometry>
        </mxCell>
        <mxCell id="118PALkIRRvLdiDWojPn-8" value="&lt;font style=&quot;font-size: 8px;&quot;&gt;13. Transferir los datos al controlador&lt;/font&gt;" style="html=1;verticalAlign=bottom;endArrow=open;dashed=1;endSize=8;curved=0;rounded=0;entryX=1.5;entryY=0.85;entryDx=0;entryDy=0;entryPerimeter=0;" edge="1" parent="1" target="93W3_eNrnLVxKb-_njBg-6">
          <mxGeometry x="0.0043" relative="1" as="geometry">
            <mxPoint x="675" y="330" as="sourcePoint" />
            <mxPoint x="540" y="330" as="targetPoint" />
            <mxPoint as="offset" />
          </mxGeometry>
        </mxCell>
        <mxCell id="118PALkIRRvLdiDWojPn-9" value="&lt;font style=&quot;font-size: 8px;&quot;&gt;14. Procesa los datos&lt;/font&gt;&lt;div&gt;&lt;font style=&quot;font-size: 8px;&quot;&gt;y se envían a webview&lt;/font&gt;&lt;/div&gt;" style="html=1;verticalAlign=bottom;endArrow=open;dashed=1;endSize=8;curved=0;rounded=0;align=left;" edge="1" parent="1">
          <mxGeometry x="0.4483" relative="1" as="geometry">
            <mxPoint x="525" y="340" as="sourcePoint" />
            <mxPoint x="380" y="340" as="targetPoint" />
            <mxPoint as="offset" />
          </mxGeometry>
        </mxCell>
        <mxCell id="118PALkIRRvLdiDWojPn-10" value="" style="endArrow=block;endFill=1;html=1;edgeStyle=orthogonalEdgeStyle;align=left;verticalAlign=top;rounded=0;" edge="1" parent="1" target="XkELYPimh5mJrG420ySH-1">
          <mxGeometry x="-1" relative="1" as="geometry">
            <mxPoint x="380" y="440" as="sourcePoint" />
            <mxPoint x="520" y="440" as="targetPoint" />
            <Array as="points">
              <mxPoint x="490" y="440" />
              <mxPoint x="490" y="440" />
            </Array>
          </mxGeometry>
        </mxCell>
        <mxCell id="118PALkIRRvLdiDWojPn-11" value="&lt;div align=&quot;center&quot;&gt;&lt;font style=&quot;font-size: 8px;&quot;&gt;19.Percibe un cambio en la pestaña&amp;nbsp;&lt;/font&gt;&lt;/div&gt;&lt;div align=&quot;center&quot;&gt;&lt;font style=&quot;font-size: 8px;&quot;&gt;y notifica el evento&amp;nbsp;&lt;/font&gt;&lt;/div&gt;" style="edgeLabel;resizable=0;html=1;align=center;verticalAlign=bottom;" connectable="0" vertex="1" parent="118PALkIRRvLdiDWojPn-10">
          <mxGeometry x="-1" relative="1" as="geometry">
            <mxPoint x="70" as="offset" />
          </mxGeometry>
        </mxCell>
        <mxCell id="118PALkIRRvLdiDWojPn-12" value="&lt;font style=&quot;font-size: 8px;&quot;&gt;20. Procesa los datos&lt;/font&gt;&lt;div&gt;&lt;font style=&quot;font-size: 8px;&quot;&gt;y se envían a webview&lt;/font&gt;&lt;/div&gt;" style="html=1;verticalAlign=bottom;endArrow=open;dashed=1;endSize=8;curved=0;rounded=0;align=left;" edge="1" parent="1">
          <mxGeometry x="0.5862" relative="1" as="geometry">
            <mxPoint x="525" y="470" as="sourcePoint" />
            <mxPoint x="380" y="470" as="targetPoint" />
            <mxPoint as="offset" />
          </mxGeometry>
        </mxCell>
        <mxCell id="XkELYPimh5mJrG420ySH-2" value="" style="endArrow=none;dashed=1;html=1;dashPattern=1 3;strokeWidth=2;rounded=0;" edge="1" parent="1" target="XkELYPimh5mJrG420ySH-1">
          <mxGeometry width="50" height="50" relative="1" as="geometry">
            <mxPoint x="530" y="520" as="sourcePoint" />
            <mxPoint x="529.4399999999999" y="97.5" as="targetPoint" />
          </mxGeometry>
        </mxCell>
        <mxCell id="XkELYPimh5mJrG420ySH-1" value="" style="html=1;points=[[0,0,0,0,5],[0,1,0,0,-5],[1,0,0,0,5],[1,1,0,0,-5]];perimeter=orthogonalPerimeter;outlineConnect=0;targetShapes=umlLifeline;portConstraint=eastwest;newEdgeStyle={&quot;curved&quot;:0,&quot;rounded&quot;:0};" vertex="1" parent="1">
          <mxGeometry x="525" y="410" width="10" height="80" as="geometry" />
        </mxCell>
        <mxCell id="XkELYPimh5mJrG420ySH-4" value="" style="endArrow=none;dashed=1;html=1;dashPattern=1 3;strokeWidth=2;rounded=0;" edge="1" parent="1" source="XkELYPimh5mJrG420ySH-5" target="XkELYPimh5mJrG420ySH-3">
          <mxGeometry width="50" height="50" relative="1" as="geometry">
            <mxPoint x="374" y="520" as="sourcePoint" />
            <mxPoint x="374.43999999999994" y="80" as="targetPoint" />
          </mxGeometry>
        </mxCell>
        <mxCell id="XkELYPimh5mJrG420ySH-3" value="" style="html=1;points=[[0,0,0,0,5],[0,1,0,0,-5],[1,0,0,0,5],[1,1,0,0,-5]];perimeter=orthogonalPerimeter;outlineConnect=0;targetShapes=umlLifeline;portConstraint=eastwest;newEdgeStyle={&quot;curved&quot;:0,&quot;rounded&quot;:0};" vertex="1" parent="1">
          <mxGeometry x="370" y="310" width="10" height="60" as="geometry" />
        </mxCell>
        <mxCell id="XkELYPimh5mJrG420ySH-6" value="" style="endArrow=none;dashed=1;html=1;dashPattern=1 3;strokeWidth=2;rounded=0;" edge="1" parent="1" source="XkELYPimh5mJrG420ySH-7" target="XkELYPimh5mJrG420ySH-5">
          <mxGeometry width="50" height="50" relative="1" as="geometry">
            <mxPoint x="374" y="520" as="sourcePoint" />
            <mxPoint x="374" y="370" as="targetPoint" />
          </mxGeometry>
        </mxCell>
        <mxCell id="XkELYPimh5mJrG420ySH-5" value="" style="html=1;points=[[0,0,0,0,5],[0,1,0,0,-5],[1,0,0,0,5],[1,1,0,0,-5]];perimeter=orthogonalPerimeter;outlineConnect=0;targetShapes=umlLifeline;portConstraint=eastwest;newEdgeStyle={&quot;curved&quot;:0,&quot;rounded&quot;:0};" vertex="1" parent="1">
          <mxGeometry x="370" y="410" width="10" height="40" as="geometry" />
        </mxCell>
        <mxCell id="XkELYPimh5mJrG420ySH-8" value="" style="endArrow=none;dashed=1;html=1;dashPattern=1 3;strokeWidth=2;rounded=0;" edge="1" parent="1" target="XkELYPimh5mJrG420ySH-7">
          <mxGeometry width="50" height="50" relative="1" as="geometry">
            <mxPoint x="374" y="520" as="sourcePoint" />
            <mxPoint x="374" y="450" as="targetPoint" />
          </mxGeometry>
        </mxCell>
        <mxCell id="XkELYPimh5mJrG420ySH-7" value="" style="html=1;points=[[0,0,0,0,5],[0,1,0,0,-5],[1,0,0,0,5],[1,1,0,0,-5]];perimeter=orthogonalPerimeter;outlineConnect=0;targetShapes=umlLifeline;portConstraint=eastwest;newEdgeStyle={&quot;curved&quot;:0,&quot;rounded&quot;:0};" vertex="1" parent="1">
          <mxGeometry x="370" y="460" width="10" height="40" as="geometry" />
        </mxCell>
      </root>
    </mxGraphModel>
  </diagram>
</mxfile>
